PathFileType	4	(X/Y/Z)	C:\Users\WrightLab\Desktop\Jo\P5V23.trc
DataRate	CameraRate	NumFrames	NumMarkers	Units	OrigDataRate	OrigDataStartFrame	OrigNumFrames
100.00	100.00	       18	19	mm	100.00	1	       739
Frame#	Time	Headset_Front			Headset_Back			Headset_Left			Headset_Right			Left_Shoulder			Right_Shoulder			Sternum			C7			Left Elbow			Right Elbow			Left Wrist			Right Wrist			Left ASIS			Right ASIS			S2			Left Knee			Right Knee			Left Ankle			Right Ankle			
		X1	Y1	Z1	X2	Y2	Z2	X3	Y3	Z3	X4	Y4	Z4	X5	Y5	Z5	X6	Y6	Z6	X7	Y7	Z7	X8	Y8	Z8	X9	Y9	Z9	X10	Y10	Z10	X11	Y11	Z11	X12	Y12	Z12	X13	Y13	Z13	X14	Y14	Z14	X15	Y15	Z15	X16	Y16	Z16	X17	Y17	Z17	X18	Y18	Z18	X19	Y19	Z19	

1	0.000																												-629.08563	1154.55164	-1178.98621				-543.56799	1045.72656	-987.38062	-188.54465	913.54657	-1106.77148	-462.16193	928.06519	-1057.90320				-151.47093	480.25305	-1146.60913	-518.50891	471.20135	-1099.65747	-222.64180	66.54899	-1248.62756				
2	0.010																												-629.84601	1155.78540	-1179.12988				-543.60052	1045.75464	-987.36011	-191.42569	913.32446	-1106.51367	-462.16193	928.06519	-1057.90320				-151.18106	480.41083	-1146.07251	-518.42920	471.20819	-1099.62390	-222.64180	66.54899	-1248.62756				
3	0.020																												-629.50854	1155.74670	-1179.62073				-544.11053	1045.74817	-986.95844	-191.06108	913.12036	-1107.57446	-461.96686	927.75336	-1057.72241				-150.96286	480.38477	-1146.14197	-518.55994	471.62228	-1099.86218	-222.64180	66.54899	-1248.62756				
4	0.030																												-629.41205	1155.70874	-1179.61438				-544.14282	1045.80225	-986.95648	-188.65669	913.43433	-1105.57446	-462.16193	928.06519	-1057.90320				-151.13423	479.96649	-1145.71631	-518.27393	471.18811	-1099.55396	-222.64180	66.54899	-1248.62756				
5	0.040																												-629.31488	1155.68518	-1179.60327				-544.16681	1045.85022	-986.93097	-188.63171	913.43085	-1105.55750	-462.16193	928.06519	-1057.90320				-151.10484	479.97357	-1145.70190	-517.71118	470.66541	-1099.11243	-222.64180	66.54899	-1248.62756				
6	0.050																												-628.96082	1155.61987	-1179.70544				-544.14508	1045.88940	-986.65497	-188.56743	913.96692	-1104.75134	-462.16193	928.06519	-1057.90320				-150.88959	480.13043	-1145.42847	-517.62390	470.66370	-1099.07434	-222.64180	66.54899	-1248.62756				
7	0.060																												-628.65759	1155.46033	-1179.71338				-544.18347	1045.94666	-986.65051	-191.36743	913.96497	-1105.69165	-462.03973	928.10571	-1057.47327				-151.22873	479.79935	-1145.10388	-517.25140	470.96957	-1099.11060	-222.64180	66.54899	-1248.62756				
8	0.070																												-628.55829	1155.42139	-1179.71179				-544.14246	1046.01917	-986.40686	-191.37177	913.95728	-1105.69336	-462.03973	928.10571	-1057.47327				-151.68266	479.95178	-1144.58813	-517.05585	471.04758	-1099.11536	-222.64180	66.54899	-1248.62756				
9	0.080																												-628.49017	1155.38379	-1179.72217				-544.16534	1046.05811	-986.40344	-188.52832	913.95679	-1104.72461	-462.38898	928.31995	-1057.57092				-151.14966	480.01297	-1143.40515	-516.43445	470.83731	-1099.49866	-222.64180	66.54899	-1248.62756				
10	0.090																												-628.38135	1155.42163	-1179.83093				-544.19293	1046.07520	-986.41888	-191.29565	913.95850	-1105.65649	-462.22662	928.44055	-1057.38721				-151.20593	480.19373	-1143.06812	-516.76093	471.19107	-1098.73145	-222.64180	66.54899	-1248.62756				
11	0.100																												-628.31805	1155.36157	-1179.84888				-544.21582	1046.09790	-986.42468	-191.29495	913.94769	-1105.65564	-462.22662	928.44055	-1057.38721				-151.16632	480.31738	-1142.92249	-516.21869	470.92651	-1099.21558	-222.64180	66.54899	-1248.62756				
12	0.110																												-627.78693	1154.89209	-1180.28223				-544.23242	1046.11206	-986.42108	-189.40242	914.79645	-1104.25256	-462.25705	928.39142	-1057.26758				-151.12943	480.31964	-1142.90295	-516.00446	471.07645	-1099.06543	-222.64180	66.54899	-1248.62756				
13	0.120																												-627.79333	1154.90759	-1180.28516				-544.26477	1046.13599	-986.44330	-188.94409	914.62518	-1104.09241	-461.90781	928.17725	-1057.16992				-150.99289	480.25223	-1142.47766	-516.00366	470.65085	-1098.45044	-222.64180	66.54899	-1248.62756				
14	0.130																												-627.76849	1154.89331	-1180.27856				-544.28650	1046.11023	-986.18781	-189.43074	914.44427	-1103.55872	-462.25705	928.39142	-1057.26758				-150.96869	480.24866	-1142.46350	-516.16882	470.48004	-1098.57654	-222.64180	66.54899	-1248.62756				
15	0.140																												-627.77441	1154.90808	-1180.28137				-544.28290	1046.10571	-986.19183	-189.43918	914.43787	-1103.56409	-462.28070	928.33453	-1056.36987				-150.63354	480.37427	-1142.12695	-516.55859	470.74841	-1098.25269	-222.64180	66.54899	-1248.62756				
16	0.150																												-627.70007	1154.99683	-1180.42456				-547.18488	1046.53589	-986.92896	-190.06015	914.39984	-1102.64783	-461.73138	928.25140	-1056.63892				-150.37109	480.49649	-1141.84351	-516.61670	471.20349	-1098.34338	-222.64180	66.54899	-1248.62756				
17	0.160																												-627.59344	1155.11255	-1180.62695				-547.18866	1046.53162	-986.92932	-190.03529	914.40570	-1102.63147	-462.24817	928.74652	-1056.33167				-150.34024	480.49619	-1141.82654	-516.09174	470.98434	-1098.97717	-222.64180	66.54899	-1248.62756				
18	0.170																												-627.58429	1155.11792	-1180.62561				-547.24988	1046.55713	-986.94934	-190.03734	914.39758	-1102.63245	-462.42865	928.65424	-1055.98450				-150.18336	480.66690	-1141.61011	-516.66650	470.66592	-1098.18347	-222.64180	66.54899	-1248.62756				
